HIERARCHY
ROOT hip
{
  OFFSET 0.0 0.0 0.0
  CHANNELS 6 Xposition Yposition Zposition Zrotation Yrotation Xrotation
  JOINT torso
  {
    OFFSET 0.0 0.0 0.0
    CHANNELS 3 Zrotation Xrotation Yrotation
    JOINT neck
    {
      OFFSET -31.42098999999993 328.8025209999999 74.3554680000002
      CHANNELS 3 Zrotation Xrotation Yrotation
      JOINT head
      {
        OFFSET 3.3519900000001144 303.81732099999994 206.53942900000015
        CHANNELS 3 Zrotation Xrotation Yrotation
        End Site
        {
          OFFSET 0.0 0.0 0.0
        }
      }
    }
    JOINT left_collar
    {
      OFFSET -31.42098999999993 328.8025209999999 74.3554680000002
      CHANNELS 3 Zrotation Xrotation Yrotation
      JOINT left_upper_arm
      {
        OFFSET -124.490479 -8.162841999999841 8.226441000000023
        CHANNELS 3 Zrotation Xrotation Yrotation
        JOINT left_forearm
        {
          OFFSET -253.595764 -1.5758060000000569 105.0729980000001
          CHANNELS 3 Zrotation Xrotation Yrotation
          JOINT left_hand
          {
            OFFSET -269.48803699999996 0.1478270000000066 -55.346191999999974
            CHANNELS 3 Zrotation Xrotation Yrotation
            End Site
            {
              OFFSET 0.0 0.0 0.0
            }
          }
        }
      }
    }
    JOINT right_collar
    {
      OFFSET -31.42098999999993 328.8025209999999 74.3554680000002
      CHANNELS 3 Zrotation Xrotation Yrotation
      JOINT right_upper_arm
      {
        OFFSET 162.02484099999998 0.46441600000002836 2.2303470000001653
        CHANNELS 3 Zrotation Xrotation Yrotation
        JOINT right_forearm
        {
          OFFSET 240.01246700000004 -25.835875999999985 121.34179699999959
          CHANNELS 3 Zrotation Xrotation Yrotation
          JOINT right_hand
          {
            OFFSET 252.48539699999992 18.910399999999868 -67.53466800000001
            CHANNELS 3 Zrotation Xrotation Yrotation
            End Site
            {
              OFFSET 0.0 0.0 0.0
            }
          }
        }
      }
    }
  }
}
MOTION
Frames: 16
Frame Time: 0.01
-228.02332238589804 267.2029920646054 1390.3953378417693 2.6995063605696736 -2.7970716182885456 -1.387478939038669 0.04356483855925247 3.1614848306117374 0.295398143452745 -2.8879906548818193 -5.561294033081318 2.096534907897211 0.0 0.0 0.0 0.041661403020410034 0.19837942873570785 -2.961155676995987 50.87122324001678 7.261380507518953 29.503900111193015 43.74318428725296 -4.649306018659253 -11.675374131550573 0.0 0.0 0.0 -0.42320138974947086 0.009521775106571114 4.462053977860343 -48.65845727903128 8.02567898401584 -30.421569138190787 -55.93121277922294 -8.735931266528874 14.968243061693403 0.0 0.0 0.0
-227.9544823663721 267.154682828528 1390.3208713561771 2.7353526443094287 -2.8182959835161596 -1.3545399257933635 -0.003590845220262123 3.1707638662592146 0.3057059435393071 -2.862288724428241 -5.559168558420344 2.078348299136702 0.0 0.0 0.0 0.0729916203667771 0.20549550351948725 -3.024737551522815 50.85874224583423 7.259940403603252 29.502578753253538 43.719477265392825 -4.64267685393761 -11.684915427201075 0.0 0.0 0.0 -0.44539467006827965 0.010671250440571354 4.441281807011004 -48.64100934784691 8.027428656643291 -30.410641438002564 -55.91283985221835 -8.73024633468207 14.974591420289187 0.0 0.0 0.0
-227.88475210493743 267.10640168581443 1390.2445890125878 2.7699755490432354 -2.8391682263042712 -1.322531555115128 -0.049790338303816 3.179961394037092 0.31580713104283115 -2.8369445170012733 -5.557120432730008 2.0604165590736616 0.0 0.0 0.0 0.10406195082323468 0.2125494610659058 -3.0872168706272083 50.8462387711454 7.258274942978906 29.501710315985978 43.696347698854346 -4.636108145992901 -11.694486722123994 0.0 0.0 0.0 -0.46705566263004167 0.011786281677021984 4.421753374456406 -48.62385643960596 8.029062050155733 -30.400041105252267 -55.89455204255799 -8.724718556265538 14.980624630745934 0.0 0.0 0.0
-227.81332077964268 267.0579536821741 1390.1656194272543 2.8031246229817692 -2.8597360067339337 -1.2916213618341577 -0.09468815118694629 3.1890117542621566 0.32562692035127333 -2.8122259957556097 -5.555104551422894 2.0429277057582804 0.0 0.0 0.0 0.13436270329551195 0.21946107616403568 -3.148130854707953 50.833923147041794 7.256428129569377 29.50127707502403 43.674089541963944 -4.629656054999735 -11.704033403294616 0.0 0.0 0.0 -0.4879327909125238 0.012854692899065349 4.403458672140268 -48.607260710541205 8.030592547998653 -30.38986501559279 -55.87658738486582 -8.719407192001219 14.986291929324121 0.0 0.0 0.0
-227.73929836640104 267.0091353509044 1390.0830174278244 2.834524152890215 -2.8800436484939715 -1.2620000918628687 -0.13793565728701732 3.1978446062868278 0.3350896690003848 -2.7883902488756025 -5.553106674063034 2.026062786343122 0.0 0.0 0.0 0.16342918536094747 0.22615249339802204 -3.2070120918362823 50.82198531060123 7.254440571243046 29.501261234572098 43.65297831189574 -4.623372669440598 -11.713505168074265 0.0 0.0 0.0 -0.507782442501012 0.013864888871001813 4.386424369659779 -48.59146399343408 8.032029994295645 -30.380207091210774 -55.85917787614984 -8.714368576359446 14.991546766663065 0.0 0.0 0.0
-227.66174026670822 266.9597457303195 1389.9957910311634 2.8638730831123413 -2.900127597356543 -1.2338830124614537 -0.1791844518937358 3.2063846595551033 0.344119514920739 -2.7656778526923183 -5.551147805101712 2.0099919831244573 0.0 0.0 0.0 0.19085776578776498 0.2325502576023142 -3.2633926181789916 50.810588403495586 7.252348513448282 29.501644702733063 43.633262727837455 -4.617304921002156 -11.722856360848606 0.0 0.0 0.0 -0.5263751578255109 0.01480618583768075 4.37072029799248 -48.57668012322112 8.033380042242896 -30.371155873862804 -55.84254322411053 -8.709654609104197 14.996348067873274 0.0 0.0 0.0
-227.57967275573088 266.9095955829706 1389.902929590347 2.890848579848729 -2.92001364491794 -1.207507743422278 -0.21809130528212156 3.2145520972054484 0.35264138987282684 -2.744307931119373 -5.5492867191385775 1.9948711691477952 0.0 0.0 0.0 0.21631783372027844 0.23858720806932593 -3.316810619149015 50.799864284564904 7.250183319767413 29.502408612940197 43.615157393412765 -4.611493750117836 -11.73204600809111 0.0 0.0 0.0 -0.5435016211921806 0.015669118812009976 4.356461162759093 -48.563088907105914 8.03464381597083 -30.36279229844069 -55.82688512234309 -8.70531125347217 15.00066167171962 0.0 0.0 0.0
-227.4921183086932 266.8585141998293 1389.8034320346196 2.915113537378452 -2.9397162512433543 -1.1831282775033882 -0.25432487012860405 3.222263820525598 0.3605824504002003 -2.724473983232686 -5.547620395220574 1.9808389614470363 0.0 0.0 0.0 0.23955920010818496 0.2442041879841961 -3.3668200749091817 50.78991106865701 7.2479714215182245 29.503532583731474 43.59883678642531 -4.6059735214856525 -11.74103762302549 0.0 0.0 0.0 -0.5589783325625267 0.016445711030403362 4.343802998948162 -48.55083197813385 8.035817917273315 -30.35518772764144 -55.81238217155792 -8.701377057860466 15.004461948298289 0.0 0.0 0.0
-227.398119942375 266.8063533423651 1389.696334140202 2.936328026338309 -2.959240142831501 -1.1610051358601996 -0.28757416956263726 3.2294355658407867 0.3678739342477886 -2.7063404798453248 -5.546282196686104 1.9680142712007889 0.0 0.0 0.0 0.26041484523299413 0.24935153289684892 -3.413003392216841 50.780792651210106 7.2457347553936025 29.504993662863964 43.5844307280917 -4.6007716717725256 -11.749798867024069 0.0 0.0 0.0 -0.5726528807005016 0.01712969604637241 4.3329342276575575 -48.54001062255023 8.036894807734676 -30.348402242269845 -55.79918551081607 -8.697881714595688 15.007733582377409 0.0 0.0 0.0
-227.29676382641338 266.7529880961929 1389.5807338162144 2.9541643422324557 -2.978584169958096 -1.1413919267238994 -0.3175587063108288 3.235984845810339 0.37445340499777574 -2.6900401964026823 -5.545437721207347 1.9564943277621885 0.0 0.0 0.0 0.2787992250827538 0.2539903064537315 -3.4549866961157614 50.772540077844724 7.243491708120724 29.506764867253224 43.57202139969207 -4.595908565753196 -11.758301140161047 0.0 0.0 0.0 -0.5844087474022067 0.017716687490418704 4.3240615569637635 -48.53068554161544 8.037863599814262 -30.34248311691234 -55.787415197380774 -8.694844678316656 15.010473480469695 0.0 0.0 0.0
-227.187199563453 266.6983146768177 1389.455813461282 2.9683249327820502 -2.997747185289283 -1.1245189340666297 -0.3440398026989122 3.241834554937038 0.3802672930271302 -2.6756722526931958 -5.545278366038516 1.9463531575457165 0.0 0.0 0.0 0.29470261234003065 0.2580932511834287 -3.492457041494139 50.76515455676431 7.241258575944263 29.50881323198535 43.561641865335545 -4.591397538792652 -11.766519138588446 0.0 0.0 0.0 -0.5941695485718708 0.018204295399063125 4.317391399094596 -48.52287840070007 8.038711285996751 -30.337463368169924 -55.777157363554046 -8.692273884354654 15.012692716213824 0.0 0.0 0.0
-227.06865769118602 266.6422455207702 1389.3208585397447 2.978562087311949 -3.016735469890015 -1.1105747349010262 -0.3668325246832895 3.246916969226504 0.38527358171161524 -2.6633008640093956 -5.54601281320387 1.937640525350103 0.0 0.0 0.0 0.30818216705019186 0.26164542073416713 -3.5251804021571775 50.75861186800991 7.239051512686315 29.5110973364862 43.55327596624573 -4.587245107988334 -11.774430379626178 0.0 0.0 0.0 -0.6019025684011312 0.018592190894020613 4.3131079573816224 -48.51657493674514 8.039424410048149 -30.333360267081265 -55.76846216351949 -8.690164627241685 15.014418379467793 0.0 0.0 0.0
-226.9404641079415 266.58470227318855 1389.175271641839 2.9846979152879607 -3.0355710171825985 -1.0996871776199588 -0.3858173032364786 3.2511777818329715 0.3894444339855759 -2.6529548588857788 -5.547856822187565 1.9303813843151747 0.0 0.0 0.0 0.3193505988600712 0.26464446102026956 -3.5530189720146033 50.75286788251814 7.23688888448211 29.51356437611071 43.546859395989316 -4.583451338174158 -11.782014670832291 0.0 0.0 0.0 -0.6076213863059026 0.01888212281105604 4.311349615860308 -48.51172934284822 8.039991134102616 -30.330173768495655 -55.76134249314173 -8.688498673684377 15.01569515306411 0.0 0.0 0.0
-226.80205125757848 266.52560749109574 1389.0185814267386 2.986642915081535 -3.05429983729321 -1.0919052708746804 -0.40095021150662913 3.2545797733806134 0.3927685211165385 -2.6446280602787486 -5.551021887381234 1.9245759130025974 0.0 0.0 0.0 0.32836337773542423 0.2671005140939605 -3.575946149032817 50.74786486189785 7.234793885620926 29.516146963842107 43.54228175786298 -4.580010351819877 -11.789253491085974 0.0 0.0 0.0 -0.6113873593665274 0.01907789078490918 4.312185627805134 -48.50826962015884 8.04040358748159 -30.32788491226307 -55.75577343318018 -8.68724368765448 15.016586423743853 0.0 0.0 0.0
-226.65296602399854 266.464875977424 1388.8504459996495 2.984411418548157 -3.0729994030348773 -1.087183568720808 -0.4122708475057397 3.257105736486104 0.39525281631844983 -2.6382806355752 -5.555703440420049 1.920200226225458 0.0 0.0 0.0 0.33540545945700995 0.26903573207609216 -3.594057630013066 50.74353817072612 7.232797213577999 29.518759949319136 43.53938943989137 -4.5769109741212715 -11.796129257023113 0.0 0.0 0.0 -0.6133097262593089 0.019185279270456216 4.315595235610093 -48.50610356912451 8.04066031501053 -30.326454358660428 -55.75169235500636 -8.686353037175126 15.01717474958962 0.0 0.0 0.0
-226.49287437767663 266.4024066389332 1388.6706504533856 2.9781324001765523 -3.0917844326224873 -1.0853704916332523 -0.4199069178063995 3.25876036008699 0.39692365203329266 -2.6338414890494373 -5.562069339241548 1.9172078250587807 0.0 0.0 0.0 0.34067842359995815 0.2704834081965581 -3.6075773160241726 50.73982300460121 7.230939562721475 29.52129761228641 43.53798920035585 -4.574137506238818 -11.802624461446957 0.0 0.0 0.0 -0.6135441435379843 0.019211955709096673 4.3214512331961 -48.505125074572476 8.040768593393306 -30.32582129594039 -55.74899964681548 -8.685766037054016 15.017561549108597 0.0 0.0 0.0
